<svg width="36" height="36" viewBox="0 0 36 36" fill="none" xmlns="http://www.w3.org/2000/svg">
<path d="M27 19.125L29.151 23.2909L33.75 23.9591L30.375 27L31.2424 31.5L27 28.9688L22.7576 31.5L23.625 27L20.25 23.9591L24.975 23.2909L27 19.125ZM6.75 18H13.5V20.25H6.75V18ZM6.75 13.5H18V15.75H6.75V13.5ZM6.75 9H18V11.25H6.75V9Z" fill="#51ACD9"/>
<path d="M18 29.25H4.5V6.75H31.5V18H33.75V6.75C33.75 6.15326 33.5129 5.58097 33.091 5.15901C32.669 4.73705 32.0967 4.5 31.5 4.5H4.5C3.90326 4.5 3.33097 4.73705 2.90901 5.15901C2.48705 5.58097 2.25 6.15326 2.25 6.75V29.25C2.25 29.8467 2.48705 30.419 2.90901 30.841C3.33097 31.2629 3.90326 31.5 4.5 31.5H18V29.25Z" fill="#51ACD9"/>
</svg>
