<svg width="36" height="36" viewBox="0 0 36 36" fill="none" xmlns="http://www.w3.org/2000/svg">
<path d="M22.5 6C20.9087 6 19.3826 6.63214 18.2574 7.75736C17.1321 8.88258 16.5 10.4087 16.5 12C16.5 13.5913 17.1321 15.1174 18.2574 16.2426C19.3826 17.3679 20.9087 18 22.5 18C24.0913 18 25.6174 17.3679 26.7426 16.2426C27.8679 15.1174 28.5 13.5913 28.5 12C28.5 10.4087 27.8679 8.88258 26.7426 7.75736C25.6174 6.63214 24.0913 6 22.5 6ZM22.5 8.85C22.9137 8.85 23.3233 8.93148 23.7055 9.08978C24.0876 9.24808 24.4349 9.48011 24.7274 9.77261C25.0199 10.0651 25.2519 10.4124 25.4102 10.7945C25.5685 11.1767 25.65 11.5863 25.65 12C25.65 12.4137 25.5685 12.8233 25.4102 13.2055C25.2519 13.5876 25.0199 13.9349 24.7274 14.2274C24.4349 14.5199 24.0876 14.7519 23.7055 14.9102C23.3233 15.0685 22.9137 15.15 22.5 15.15C22.0863 15.15 21.6767 15.0685 21.2945 14.9102C20.9124 14.7519 20.5651 14.5199 20.2726 14.2274C19.9801 13.9349 19.7481 13.5876 19.5898 13.2055C19.4315 12.8233 19.35 12.4137 19.35 12C19.35 11.1646 19.6819 10.3634 20.2726 9.77261C20.8634 9.18187 21.6646 8.85 22.5 8.85ZM6 10.5V15H1.5V18H6V22.5H9V18H13.5V15H9V10.5H6ZM22.5 19.5C18.495 19.5 10.5 21.495 10.5 25.5V30H34.5V25.5C34.5 21.495 26.505 19.5 22.5 19.5ZM22.5 22.35C26.955 22.35 31.65 24.54 31.65 25.5V27.15H13.35V25.5C13.35 24.54 18 22.35 22.5 22.35Z" fill="#51ACD9"/>
</svg>
