<svg width="36" height="36" viewBox="0 0 36 36" fill="none" xmlns="http://www.w3.org/2000/svg">
<path fill-rule="evenodd" clip-rule="evenodd" d="M19.5 6C19.5 5.60218 19.342 5.22064 19.0607 4.93934C18.7794 4.65804 18.3978 4.5 18 4.5C17.6022 4.5 17.2206 4.65804 16.9393 4.93934C16.658 5.22064 16.5 5.60218 16.5 6V7.5C14.9087 7.5 13.3826 8.13214 12.2574 9.25736C11.1321 10.3826 10.5 11.9087 10.5 13.5C10.5 15.0913 11.1321 16.6174 12.2574 17.7426C13.3826 18.8679 14.9087 19.5 16.5 19.5V25.5C15.8795 25.5003 15.2741 25.3082 14.7673 24.9501C14.2605 24.592 13.8772 24.0855 13.6702 23.5005C13.5326 23.1323 13.2559 22.8329 12.8997 22.6666C12.5435 22.5004 12.1363 22.4805 11.7657 22.6115C11.395 22.7424 11.0906 23.0136 10.9178 23.3667C10.7451 23.7197 10.7179 24.1265 10.842 24.4995C11.2556 25.6696 12.0218 26.6826 13.0351 27.3991C14.0484 28.1156 15.259 28.5002 16.5 28.5V30C16.5 30.3978 16.658 30.7794 16.9393 31.0607C17.2206 31.342 17.6022 31.5 18 31.5C18.3978 31.5 18.7794 31.342 19.0607 31.0607C19.342 30.7794 19.5 30.3978 19.5 30V28.5C21.0913 28.5 22.6174 27.8679 23.7426 26.7426C24.8679 25.6174 25.5 24.0913 25.5 22.5C25.5 20.9087 24.8679 19.3826 23.7426 18.2574C22.6174 17.1321 21.0913 16.5 19.5 16.5V10.5C20.1205 10.4997 20.7259 10.6918 21.2327 11.0499C21.7395 11.408 22.1228 11.9145 22.3298 12.4995C22.4674 12.8677 22.7441 13.1671 23.1003 13.3334C23.4565 13.4996 23.8637 13.5195 24.2343 13.3885C24.605 13.2576 24.9094 12.9864 25.0822 12.6333C25.2549 12.2803 25.2821 11.8735 25.158 11.5005C24.7444 10.3304 23.9782 9.31736 22.9649 8.60089C21.9516 7.88443 20.741 7.4998 19.5 7.5V6ZM16.5 10.5C15.7044 10.5 14.9413 10.8161 14.3787 11.3787C13.8161 11.9413 13.5 12.7044 13.5 13.5C13.5 14.2956 13.8161 15.0587 14.3787 15.6213C14.9413 16.1839 15.7044 16.5 16.5 16.5V10.5ZM19.5 19.5V25.5C20.2956 25.5 21.0587 25.1839 21.6213 24.6213C22.1839 24.0587 22.5 23.2956 22.5 22.5C22.5 21.7044 22.1839 20.9413 21.6213 20.3787C21.0587 19.8161 20.2956 19.5 19.5 19.5Z" fill="#51ACD9"/>
</svg>
